<svg width="151" height="107" viewBox="0 0 151 107" fill="none" xmlns="http://www.w3.org/2000/svg">
<path d="M112.665 39.72H80.9353V70.61H112.665V39.72Z" fill="#828282"/>
<path d="M75.2553 34.8H41.8853V3.34002C52.1553 2.73002 62.4352 2.13002 72.7052 1.52002C73.5552 12.61 74.4053 23.7 75.2553 34.79V34.8Z" fill="#828282"/>
<path d="M8.78533 99.18C12.0353 99.01 13.4453 98.84 16.4553 99.15C17.2453 99.18 17.6153 99.56 17.5853 100.32C17.5853 100.9 17.3453 101.38 16.5553 101.49C15.1153 101.42 13.8453 101.39 12.7553 101.39C11.6653 101.39 10.3553 101.42 8.88533 101.46C7.99533 101.49 7.06533 101.6 6.07533 101.73C5.08533 101.86 4.19533 101.97 3.43533 102.07C1.27533 102.21 0.245328 101.45 0.115328 99.23C0.0153281 97.41 -0.0246719 95.46 0.0153281 93.34C0.0553281 91.22 0.115328 88.3 0.155328 84.64C0.185328 83.72 0.775328 83.27 1.32533 83.27C1.63533 83.27 2.79533 83.27 2.76533 84.78C2.59533 89.57 2.52533 94.3 2.55533 98.28C2.52533 99.41 3.10533 99.65 3.68533 99.62C5.05533 99.48 6.32533 99.38 8.78533 99.21V99.18ZM22.0153 81.5C22.8753 81.6 23.2453 82.08 23.1453 82.97C23.0053 84.58 22.9353 86.29 22.9053 88.04C24.4153 87.97 25.9553 87.97 27.5653 88.07C28.3153 88.1 28.6953 88.52 28.7353 89.24C28.6953 89.99 28.3253 90.34 27.6053 90.27C26.0653 90.24 24.4853 90.27 22.9153 90.3C22.8853 91.43 22.8853 92.59 22.8853 93.79L22.9153 101.29C22.9453 101.94 23.0553 102.69 23.1553 103.48C23.3253 104.13 22.9153 104.82 21.8553 104.85C21.2753 104.85 20.8653 104.4 20.6253 103.55C20.5253 102.15 20.4553 100.71 20.4553 99.23C20.4253 97.76 20.4253 95.94 20.3853 93.71C20.4253 91.55 20.4553 89.91 20.4553 88.78C20.4553 87.65 20.5253 85.83 20.6653 83.26C20.6653 82.3 20.8053 81.48 22.0353 81.48L22.0153 81.5Z" fill="black"/>
<path d="M33.6253 82.39C36.8453 82.25 39.4853 82.22 41.5353 82.25C43.4853 82.25 44.4453 83.41 44.5853 84.92C44.8953 87.42 44.9253 91.43 44.8253 92.8C44.8253 93.62 44.1453 94.38 43.1853 94.38C42.7353 94.42 42.3253 94.42 41.9853 94.42C41.6053 94.45 41.1653 94.45 40.5853 94.49L34.8353 94.66H33.4653C32.0953 94.56 31.5453 93.46 31.4053 92.47C31.2653 91.13 31.1953 88.46 31.2353 84.45C31.3353 83.18 32.0253 82.39 33.6353 82.39H33.6253ZM31.7753 99.62C31.7753 98.49 32.2553 97.8 33.2453 97.77C33.9653 97.8 34.3053 98.25 34.3053 99.07V101.54C34.2653 102.6 34.6853 102.6 35.8153 102.6C40.2353 102.33 47.5353 101.81 52.1553 101.85C53.1453 101.85 53.7953 102.09 53.8353 103.15C53.8353 103.6 53.6653 104.28 52.5653 104.25C46.6753 104.11 43.0753 104.46 36.6053 104.97H34.7253C32.7753 104.94 31.9853 104.04 31.8453 102.16L31.7753 99.62ZM33.5553 85.68L33.6953 91.64C33.8353 92.43 34.0053 92.43 34.5553 92.39C36.0253 92.42 39.3853 92.36 41.8153 92.25C42.2253 92.22 42.4653 92.08 42.4653 91.67C42.4953 90.64 42.4353 88.59 42.2553 85.5C42.1553 84.95 41.9153 84.51 41.0553 84.47C39.5853 84.5 38.4853 84.5 37.6953 84.5C36.9053 84.5 35.9453 84.53 34.8153 84.6C33.6153 84.6 33.5453 84.81 33.5453 85.66L33.5553 85.68ZM53.9753 85.89C54.8953 85.96 55.3453 86.34 55.2753 87.02C55.2753 87.81 54.8653 88.18 54.0053 88.08C53.0853 88.05 52.2553 88.05 51.5053 88.08C51.5053 88.46 51.5053 88.8 51.5353 89.18C51.6353 91.47 51.8453 93.5 52.1553 95.24C52.2553 95.93 51.8853 96.34 51.0553 96.51C50.2653 96.58 49.8253 96.1 49.6853 95.11C49.4453 93.5 49.3053 91.72 49.2753 89.83C49.2053 87.95 49.1353 85.62 49.0353 82.84C49.2053 81.64 49.4153 81.67 50.0653 81.57C50.7553 81.5 51.2353 81.84 51.5053 82.56C51.4753 83.62 51.4353 84.72 51.4353 85.85C52.2553 85.85 53.1153 85.85 53.9653 85.88L53.9753 85.89Z" fill="black"/>
<path d="M80.1453 82.7701C81.0053 82.8701 81.3753 83.3501 81.2753 84.2401C81.0053 87.4901 80.7953 91.3301 80.7953 95.4401C80.8253 96.8401 80.8253 98.1101 80.8253 99.2401C80.8253 100.37 80.8953 101.47 81.0353 102.46C81.1053 103.04 81.1753 103.69 81.2753 104.41C81.4453 105.06 81.0353 105.64 79.9753 105.68C79.3953 105.68 78.9853 105.23 78.7453 104.38C78.6753 103.93 78.6053 103.46 78.5353 102.98L76.4453 103.12C68.9453 103.15 63.3553 103.15 59.6253 103.19C58.6353 103.19 57.0853 103.33 57.0853 102.06C57.1253 101.2 57.6653 100.79 58.7253 100.83L78.3553 100.73V99.9401C78.3253 98.4301 78.3553 96.5801 78.3853 94.3901C78.4853 90.0401 78.4853 89.7301 78.7653 84.5601C78.7653 83.6001 78.9053 82.7801 80.1353 82.7801L80.1453 82.7701ZM63.3253 82.9701C63.9053 82.7301 64.4853 82.5601 65.0353 82.4601C65.6853 82.3601 66.3353 82.3201 67.0553 82.3201C68.1153 82.3201 69.4153 82.3501 71.6153 83.3501C73.4953 84.3101 75.2853 86.9101 75.1753 90.3401C74.9053 94.3101 73.6353 96.2301 71.1353 97.3301C70.4153 97.7101 68.2953 98.1501 66.5453 98.1201C61.5753 98.1501 58.9453 96.9201 58.1153 93.1201C57.9453 92.1301 57.9053 91.2001 57.9453 90.3401C58.2153 87.4301 58.8053 86.4301 59.7253 85.1701C60.4053 84.2501 61.4353 83.4901 62.5353 83.0501C62.8453 82.9501 63.0853 82.9501 63.3253 82.9801V82.9701ZM60.9953 87.4601C60.6153 88.4501 60.4153 89.4501 60.3753 90.4401C60.3453 91.4701 60.3753 92.3201 60.5453 92.9801C61.4653 95.6201 63.8653 95.8201 66.5053 95.8201C71.0653 95.8201 72.6053 93.9401 72.7053 90.1301C72.7353 87.0801 70.5453 85.0901 69.0053 84.7901C68.3853 84.6501 67.9453 84.5801 67.6353 84.5501C67.3253 84.5201 67.1553 84.5201 67.0553 84.5201C66.3753 84.5501 65.7153 84.6201 65.1053 84.7601C64.6253 84.9301 64.1853 85.1001 63.8053 85.3401C63.4953 85.5101 63.2253 85.5501 62.9853 85.3701C61.9953 85.9201 61.3053 86.6001 60.9953 87.4601Z" fill="black"/>
<path d="M101.485 98.1801C102.375 98.0801 103.095 98.0401 103.605 98.0401C105.895 98.0401 107.035 98.0701 109.125 98.3101C109.875 98.3501 110.255 98.6901 110.225 99.4101C110.225 99.9901 109.815 100.47 109.025 100.51C106.595 100.34 106.015 100.27 103.375 100.37C102.865 100.37 102.035 100.44 100.875 100.54C99.7054 100.64 98.6154 100.75 97.5854 100.78C95.4254 100.92 94.4653 100.37 94.5053 98.1801C95.1553 92.8701 95.2253 91.7101 94.6753 85.4401C94.7053 84.5201 95.2954 84.0701 95.8354 84.0701C96.1454 84.0701 97.3053 84.0701 97.2753 85.5801C97.4453 87.1201 97.5453 88.9401 97.5453 91.0301C97.5453 93.1201 97.4453 95.1401 97.2053 97.0901C97.1753 98.2201 97.8254 98.4301 98.3354 98.4301C99.5354 98.3601 100.565 98.2901 101.485 98.1901V98.1801ZM111.695 94.5201C111.655 93.6001 111.655 92.5701 111.655 91.4701C109.565 91.5701 107.925 91.6801 106.725 91.8501C105.735 92.0901 105.115 91.8201 104.905 91.0601C104.875 90.0001 105.415 89.6901 106.515 89.5901C107.955 89.4201 109.665 89.3201 111.615 89.2801V84.7901C111.585 83.8601 112.065 83.2501 112.885 83.2501C113.745 83.1101 114.055 83.5201 114.085 85.0301C113.985 89.4101 114.055 97.8801 114.495 102.02C114.395 102.88 113.945 103.29 113.155 103.25C112.295 103.08 111.925 102.6 111.985 101.78C111.815 99.6201 111.715 97.2201 111.675 94.5201H111.695ZM118.885 81.8401C119.745 81.9401 120.115 82.4201 120.015 83.3101C119.705 86.6001 120.255 96.9101 120.525 100.51C120.625 101.44 120.695 102.29 120.735 103.05C120.905 103.7 120.495 104.42 119.435 104.45C118.855 104.45 118.445 104 118.205 103.15C117.485 95.3101 117.245 88.1501 117.525 83.6201C117.525 82.6601 117.665 81.8401 118.895 81.8401H118.885Z" fill="black"/>
<path d="M124.165 95.13C123.995 94.55 124.265 94.1 124.985 93.79C128.445 92.73 131.285 91.56 133.205 89.92C131.455 89.99 129.025 90.06 125.845 90.13C125.225 90.1 124.855 89.72 124.745 89.07C124.775 88.15 125.325 87.84 126.015 87.84C129.575 87.77 132.555 87.7 134.985 87.63C135.435 86.88 135.705 86.26 135.775 85.75C135.745 85.03 135.465 85.03 135.085 85.03C132.515 85.2 129.915 85.34 127.275 85.51C126.315 85.51 125.805 85.24 125.805 84.24C125.805 83.59 126.285 83.21 127.275 83.11C128.545 83.08 130.015 83.01 131.655 82.9C133.295 82.8 134.805 82.73 136.215 82.66C137.825 82.63 138.165 83.11 138.335 84.24C138.365 84.86 138.305 85.58 138.125 86.43C137.615 88.79 135.385 91.64 132.265 93.32C130.175 94.59 127.505 95.65 125.415 96.03C124.695 96.06 124.245 95.79 124.145 95.14L124.165 95.13ZM138.855 96.71C138.885 97.5 139.235 97.74 139.645 98.01C141.465 99 143.315 100.06 145.225 101.16C147.145 102.26 148.825 103.18 150.295 103.97C150.875 104.42 151.015 105 150.705 105.75C150.395 106.4 149.785 106.5 148.885 106.06C147.615 105.44 145.935 104.55 143.885 103.42C141.835 102.29 140.085 101.33 138.675 100.54C137.745 100.09 137.165 100.33 136.725 100.64C135.975 101.05 135.185 101.5 134.365 101.94C131.935 103.28 129.535 104.41 127.205 105.3C126.455 105.61 125.905 105.44 125.525 104.82C125.185 104.17 125.355 103.59 126.005 103.11C127.715 102.46 129.495 101.6 131.315 100.61C133.135 99.62 134.535 98.9 135.455 98.45C136.035 98.14 136.175 97.53 136.205 96.74L136.235 95.1C136.235 94.52 136.575 94.21 137.265 94.11C138.225 94.11 138.735 94.45 138.805 95.14L138.835 96.72L138.855 96.71ZM146.425 89.55C145.365 89.62 144.335 89.65 143.415 89.69C141.945 89.72 140.575 89.76 139.275 89.72C138.385 89.75 137.935 89.34 137.935 88.49C137.965 87.84 138.385 87.5 139.165 87.46C140.155 87.49 141.425 87.49 142.965 87.43C143.955 87.4 145.025 87.33 146.155 87.26C145.945 85.51 145.705 83.97 145.435 82.57C145.535 81.37 145.775 81.41 146.425 81.27C147.075 81.17 147.595 81.48 147.895 82.19C148.275 84.11 148.615 86.37 148.925 88.94C149.195 91.51 149.405 93.5 149.575 94.87C149.745 95.83 149.435 96.41 148.585 96.58C147.725 96.68 147.245 96.24 147.075 95.31C146.865 93.84 146.665 91.92 146.425 89.55Z" fill="black"/>
<path d="M80.6953 35.5499C80.6953 35.5499 80.6453 35.5499 80.6253 35.5499C80.0753 35.5099 79.6653 35.0399 79.7053 34.4899C80.2953 26.2899 79.8153 18.0299 78.2653 9.94991L78.1053 9.14991C77.6253 6.69991 77.1253 4.15991 77.4653 1.58991C77.5353 1.04991 78.0253 0.659911 78.5753 0.739911C79.1153 0.809911 79.4953 1.30991 79.4253 1.84991C79.1253 4.09991 79.5953 6.47991 80.0453 8.76991L80.2053 9.57991C81.7953 17.8399 82.2853 26.2699 81.6753 34.6399C81.6353 35.1599 81.2053 35.5599 80.6853 35.5599L80.6953 35.5499Z" fill="black"/>
<path d="M81.4252 35.21C80.8852 35.21 80.4452 34.78 80.4352 34.24C80.4252 33.69 80.8552 33.24 81.4052 33.23L110.865 32.6C110.985 32.6 111.195 32.6 111.265 32.56C111.275 32.54 111.335 32.43 111.415 32.01C113.315 22.07 113.475 11.97 111.885 1.99L80.2252 2.29C79.6852 2.29 79.2352 1.85 79.2352 1.31C79.2352 0.76 79.6652 0.31 80.2152 0.31L112.735 0C113.215 0 113.635 0.35 113.715 0.83C115.485 11.32 115.365 21.93 113.375 32.39C113.285 32.85 113.105 33.8 112.255 34.29C111.775 34.56 111.255 34.58 110.915 34.58L81.4452 35.21C81.4452 35.21 81.4352 35.21 81.4252 35.21Z" fill="black"/>
<path d="M81.0253 71.92C80.7653 71.92 80.5053 71.82 80.3153 71.63C80.1153 71.43 80.0053 71.16 80.0253 70.87C80.2753 65.85 80.3353 60.76 80.1853 55.74C80.0353 50.71 79.6853 45.61 79.1353 40.6C79.0453 39.91 79.2953 39.46 79.5153 39.22C79.7653 38.95 80.2153 38.65 81.0153 38.72C82.0053 38.8 104.235 38.74 111.545 38.72C111.735 38.72 111.905 38.77 112.055 38.86C112.205 38.49 112.555 38.23 112.975 38.23C113.525 38.23 113.975 38.67 113.975 39.22C113.985 41.51 114.065 43.81 114.215 46.05C114.245 46.47 114.845 56.37 113.975 68.62C113.925 69.3 113.685 69.8 113.255 70.11C112.865 70.4 112.375 70.52 111.835 70.48C111.055 70.43 100.705 70.92 81.0753 71.91C81.0553 71.91 81.0453 71.91 81.0253 71.91V71.92ZM81.1653 40.73C81.7053 45.72 82.0453 50.73 82.1853 55.68C82.3253 60.38 82.2853 65.15 82.0753 69.86C107.295 68.59 111.405 68.46 111.985 68.49C111.985 68.49 111.985 68.49 111.985 68.48C112.855 56.37 112.255 46.6 112.225 46.19C112.105 44.36 112.035 42.49 112.005 40.62C111.875 40.69 111.715 40.73 111.555 40.73C88.2553 40.79 82.4853 40.77 81.1653 40.73Z" fill="black"/>
<path d="M41.4553 36.75C41.2153 36.75 40.9853 36.67 40.8053 36.51C40.5953 36.33 40.4753 36.08 40.4553 35.81C40.2453 32.25 40.2053 28.68 40.3353 25.2C40.4253 22.77 40.5753 20.79 40.7253 18.88C40.9553 15.93 41.1753 13.15 41.1053 9.19003C41.0753 7.20003 40.9753 5.19003 40.8153 3.23003C40.7953 2.96003 40.8853 2.69003 41.0553 2.49003C41.2353 2.29003 41.4853 2.16003 41.7553 2.15003L72.6553 0.540032C73.1653 0.510032 73.6153 0.880032 73.6953 1.38003C74.5553 6.70003 75.1953 12.12 75.6253 17.48C76.0853 23.22 76.2953 29.06 76.2553 34.82C76.2553 35.09 76.1453 35.35 75.9453 35.53C75.7453 35.72 75.4853 35.82 75.2153 35.81C70.6453 35.66 66.0053 35.62 61.4253 35.69C54.8253 35.8 48.1353 36.16 41.5353 36.76C41.5053 36.76 41.4753 36.76 41.4453 36.76L41.4553 36.75ZM42.8853 4.08003C43.0053 5.76003 43.0753 7.46003 43.1053 9.15003C43.1753 13.21 42.9553 16.04 42.7153 19.03C42.5653 20.92 42.4153 22.88 42.3253 25.27C42.2153 28.35 42.2353 31.51 42.3853 34.66C48.6953 34.11 55.0753 33.78 61.3853 33.68C65.6553 33.61 69.9753 33.64 74.2453 33.77C74.2453 28.4 74.0453 22.97 73.6153 17.63C73.2153 12.62 72.6253 7.56003 71.8453 2.58003L42.8753 4.09003L42.8853 4.08003Z" fill="black"/>
<path d="M41.8853 72.1999C41.6353 72.1999 41.3853 72.0999 41.1953 71.9299C40.9953 71.7399 40.8853 71.4799 40.8853 71.1999L40.9053 40.8299C40.9053 40.3199 41.2953 39.8799 41.8153 39.8399C52.3153 38.8399 63.0053 38.4199 73.5753 38.5999C74.0253 38.5999 74.3953 38.9099 74.5153 39.3199C74.9853 39.3299 75.4053 39.6799 75.4753 40.1699C75.8253 42.4599 76.1253 44.7799 76.3653 47.0699C77.2053 55.0499 77.3953 63.1899 76.9453 71.2499C76.9153 71.7999 76.4353 72.2199 75.8953 72.1899C70.0453 71.8599 64.0853 71.6999 58.2153 71.7199C52.8153 71.7299 47.3453 71.8899 41.9453 72.1999C41.9253 72.1999 41.9053 72.1999 41.8853 72.1999ZM42.8953 41.7399V70.1499C47.9653 69.8799 53.1153 69.7399 58.1953 69.7299C63.7753 69.7099 69.4253 69.8599 74.9853 70.1499C75.3653 62.5199 75.1553 54.8299 74.3653 47.2899C74.1353 45.0699 73.8453 42.8199 73.5053 40.6099C63.3153 40.4399 53.0253 40.8199 42.8853 41.7499L42.8953 41.7399Z" fill="black"/>
<path d="M80.6953 35.5499C80.6953 35.5499 80.6453 35.5499 80.6253 35.5499C80.0753 35.5099 79.6653 35.0399 79.7053 34.4899C80.2953 26.2899 79.8153 18.0299 78.2653 9.94991L78.1053 9.14991C77.6253 6.69991 77.1253 4.15991 77.4653 1.58991C77.5353 1.04991 78.0253 0.659911 78.5753 0.739911C79.1153 0.809911 79.4953 1.30991 79.4253 1.84991C79.1253 4.09991 79.5953 6.47991 80.0453 8.76991L80.2053 9.57991C81.7953 17.8399 82.2853 26.2699 81.6753 34.6399C81.6353 35.1599 81.2053 35.5599 80.6853 35.5599L80.6953 35.5499Z" fill="black"/>
<path d="M81.4252 35.21C80.8852 35.21 80.4452 34.78 80.4352 34.24C80.4252 33.69 80.8552 33.24 81.4052 33.23L110.865 32.6C110.985 32.6 111.195 32.6 111.265 32.56C111.275 32.54 111.335 32.43 111.415 32.01C113.315 22.07 113.475 11.97 111.885 1.99L80.2252 2.29C79.6852 2.29 79.2352 1.85 79.2352 1.31C79.2352 0.76 79.6652 0.31 80.2152 0.31L112.735 0C113.215 0 113.635 0.35 113.715 0.83C115.485 11.32 115.365 21.93 113.375 32.39C113.285 32.85 113.105 33.8 112.255 34.29C111.775 34.56 111.255 34.58 110.915 34.58L81.4452 35.21C81.4452 35.21 81.4352 35.21 81.4252 35.21Z" fill="black"/>
<path d="M81.0253 71.92C80.7653 71.92 80.5053 71.82 80.3153 71.63C80.1153 71.43 80.0053 71.16 80.0253 70.87C80.2753 65.85 80.3353 60.76 80.1853 55.74C80.0353 50.71 79.6853 45.61 79.1353 40.6C79.0453 39.91 79.2953 39.46 79.5153 39.22C79.7653 38.95 80.2153 38.65 81.0153 38.72C82.0053 38.8 104.235 38.74 111.545 38.72C111.735 38.72 111.905 38.77 112.055 38.86C112.205 38.49 112.555 38.23 112.975 38.23C113.525 38.23 113.975 38.67 113.975 39.22C113.985 41.51 114.065 43.81 114.215 46.05C114.245 46.47 114.845 56.37 113.975 68.62C113.925 69.3 113.685 69.8 113.255 70.11C112.865 70.4 112.375 70.52 111.835 70.48C111.055 70.43 100.705 70.92 81.0753 71.91C81.0553 71.91 81.0453 71.91 81.0253 71.91V71.92ZM81.1653 40.73C81.7053 45.72 82.0453 50.73 82.1853 55.68C82.3253 60.38 82.2853 65.15 82.0753 69.86C107.295 68.59 111.405 68.46 111.985 68.49C111.985 68.49 111.985 68.49 111.985 68.48C112.855 56.37 112.255 46.6 112.225 46.19C112.105 44.36 112.035 42.49 112.005 40.62C111.875 40.69 111.715 40.73 111.555 40.73C88.2553 40.79 82.4853 40.77 81.1653 40.73Z" fill="black"/>
<path d="M41.4553 36.75C41.2153 36.75 40.9853 36.67 40.8053 36.51C40.5953 36.33 40.4753 36.08 40.4553 35.81C40.2453 32.25 40.2053 28.68 40.3353 25.2C40.4253 22.77 40.5753 20.79 40.7253 18.88C40.9553 15.93 41.1753 13.15 41.1053 9.19003C41.0753 7.20003 40.9753 5.19003 40.8153 3.23003C40.7953 2.96003 40.8853 2.69003 41.0553 2.49003C41.2353 2.29003 41.4853 2.16003 41.7553 2.15003L72.6553 0.540032C73.1653 0.510032 73.6153 0.880032 73.6953 1.38003C74.5553 6.70003 75.1953 12.12 75.6253 17.48C76.0853 23.22 76.2953 29.06 76.2553 34.82C76.2553 35.09 76.1453 35.35 75.9453 35.53C75.7453 35.72 75.4853 35.82 75.2153 35.81C70.6453 35.66 66.0053 35.62 61.4253 35.69C54.8253 35.8 48.1353 36.16 41.5353 36.76C41.5053 36.76 41.4753 36.76 41.4453 36.76L41.4553 36.75ZM42.8853 4.08003C43.0053 5.76003 43.0753 7.46003 43.1053 9.15003C43.1753 13.21 42.9553 16.04 42.7153 19.03C42.5653 20.92 42.4153 22.88 42.3253 25.27C42.2153 28.35 42.2353 31.51 42.3853 34.66C48.6953 34.11 55.0753 33.78 61.3853 33.68C65.6553 33.61 69.9753 33.64 74.2453 33.77C74.2453 28.4 74.0453 22.97 73.6153 17.63C73.2153 12.62 72.6253 7.56003 71.8453 2.58003L42.8753 4.09003L42.8853 4.08003Z" fill="black"/>
<path d="M41.8853 72.1999C41.6353 72.1999 41.3853 72.0999 41.1953 71.9299C40.9953 71.7399 40.8853 71.4799 40.8853 71.1999L40.9053 40.8299C40.9053 40.3199 41.2953 39.8799 41.8153 39.8399C52.3153 38.8399 63.0053 38.4199 73.5753 38.5999C74.0253 38.5999 74.3953 38.9099 74.5153 39.3199C74.9853 39.3299 75.4053 39.6799 75.4753 40.1699C75.8253 42.4599 76.1253 44.7799 76.3653 47.0699C77.2053 55.0499 77.3953 63.1899 76.9453 71.2499C76.9153 71.7999 76.4353 72.2199 75.8953 72.1899C70.0453 71.8599 64.0853 71.6999 58.2153 71.7199C52.8153 71.7299 47.3453 71.8899 41.9453 72.1999C41.9253 72.1999 41.9053 72.1999 41.8853 72.1999ZM42.8953 41.7399V70.1499C47.9653 69.8799 53.1153 69.7399 58.1953 69.7299C63.7753 69.7099 69.4253 69.8599 74.9853 70.1499C75.3653 62.5199 75.1553 54.8299 74.3653 47.2899C74.1353 45.0699 73.8453 42.8199 73.5053 40.6099C63.3153 40.4399 53.0253 40.8199 42.8853 41.7499L42.8953 41.7399Z" fill="black"/>
<path d="M42.3254 10.64C42.0554 10.64 41.7854 10.53 41.5854 10.31C41.2154 9.89999 41.2454 9.26999 41.6554 8.89999C42.1954 8.40999 42.7254 7.90999 43.2554 7.41999C45.3654 5.43999 47.5454 3.39999 50.2654 1.85999C50.7454 1.58999 51.3554 1.75999 51.6254 2.23999C51.8954 2.71999 51.7254 3.32999 51.2454 3.59999C48.7454 5.01999 46.7454 6.88999 44.6254 8.87999C44.0854 9.37999 43.5454 9.88999 43.0054 10.38C42.8154 10.55 42.5754 10.64 42.3354 10.64H42.3254Z" fill="black"/>
<path d="M80.8754 46.9499C80.6154 46.9499 80.3454 46.8499 80.1554 46.6399C79.7754 46.2399 79.7854 45.6099 80.1854 45.2299C80.6154 44.8199 81.0454 44.3999 81.4654 43.9799C83.1654 42.2899 84.9254 40.5499 87.1254 39.2299C87.5954 38.9499 88.2154 39.0999 88.4954 39.5699C88.7754 40.0399 88.6254 40.6599 88.1554 40.9399C86.1654 42.1299 84.5654 43.7099 82.8754 45.3899C82.4454 45.8199 82.0054 46.2499 81.5754 46.6699C81.3854 46.8599 81.1354 46.9499 80.8854 46.9499H80.8754Z" fill="black"/>
<path d="M81.4554 52.1701C81.2154 52.1701 80.9654 52.0801 80.7754 51.9101C80.3654 51.5301 80.3454 50.9001 80.7154 50.5001C80.9554 50.2401 81.1954 49.9701 81.4354 49.7001C82.4154 48.6001 83.4354 47.4601 84.7254 46.5901C85.1854 46.2801 85.8054 46.4001 86.1154 46.8601C86.4254 47.3201 86.3054 47.9401 85.8454 48.2501C84.7554 48.9901 83.8654 49.9801 82.9254 51.0401C82.6754 51.3201 82.4354 51.5901 82.1854 51.8601C81.9854 52.0701 81.7154 52.1801 81.4454 52.1801L81.4554 52.1701Z" fill="black"/>
<path d="M81.4553 58.0401C81.2253 58.0401 80.9853 57.9601 80.7953 57.7901C80.3753 57.4301 80.3353 56.8001 80.6953 56.3801C81.0353 55.9801 81.3753 55.58 81.7153 55.18C83.0753 53.57 84.4753 51.9 86.2353 50.64C86.6853 50.32 87.3053 50.42 87.6353 50.87C87.9653 51.32 87.8553 51.9401 87.4053 52.2701C85.8453 53.3901 84.5853 54.89 83.2453 56.48C82.8953 56.89 82.5553 57.3001 82.2053 57.7001C82.0053 57.9301 81.7353 58.0401 81.4553 58.0401Z" fill="black"/>
<path d="M81.5654 63.0201C81.3154 63.0201 81.0654 62.9301 80.8754 62.7401C80.4754 62.3601 80.4554 61.7301 80.8354 61.3301C82.3154 59.7701 83.7754 58.1901 85.2354 56.6001C90.9354 50.4101 96.8254 44.0001 104.065 39.2401C104.525 38.9401 105.145 39.0701 105.445 39.5301C105.745 39.9901 105.615 40.6101 105.155 40.9101C98.1154 45.5301 92.3154 51.8401 86.6954 57.9501C85.2254 59.5401 83.7654 61.1401 82.2754 62.7001C82.0754 62.9101 81.8154 63.0101 81.5554 63.0101L81.5654 63.0201Z" fill="black"/>
<path d="M81.1953 68.8399C80.9453 68.8399 80.6953 68.7499 80.5053 68.5599C80.1053 68.1799 80.0853 67.5499 80.4653 67.1499C82.3453 65.1799 84.1853 63.1699 86.0353 61.1599C93.2353 53.3399 100.675 45.2599 109.825 39.2499C110.285 38.9499 110.905 39.0799 111.205 39.5399C111.505 39.9999 111.375 40.6199 110.915 40.9199C101.965 46.7999 94.6153 54.7899 87.4953 62.5099C85.6353 64.5299 83.7853 66.5399 81.9053 68.5199C81.7053 68.7299 81.4453 68.8299 81.1853 68.8299L81.1953 68.8399Z" fill="black"/>
<path d="M83.6055 71.28C83.3555 71.28 83.1155 71.19 82.9155 71.01C82.5155 70.63 82.4955 70 82.8755 69.6C83.1855 69.27 83.4955 68.93 83.8055 68.6C85.0455 67.25 86.3255 65.86 87.9355 64.79C88.3955 64.49 89.0155 64.61 89.3155 65.08C89.6155 65.54 89.4955 66.16 89.0255 66.46C87.6155 67.39 86.4755 68.63 85.2655 69.95C84.9455 70.29 84.6355 70.64 84.3155 70.97C84.1155 71.18 83.8555 71.28 83.5855 71.28H83.6055Z" fill="black"/>
<path d="M101.925 52.62C101.645 52.62 101.375 52.51 101.175 52.28C100.805 51.87 100.845 51.23 101.265 50.87C101.975 50.24 102.685 49.6 103.385 48.96C106.155 46.44 109.025 43.83 112.575 41.87C113.055 41.6 113.665 41.78 113.935 42.26C114.205 42.74 114.025 43.35 113.545 43.62C110.195 45.46 107.425 47.99 104.735 50.43C104.025 51.08 103.315 51.72 102.595 52.36C102.405 52.53 102.165 52.61 101.935 52.61L101.925 52.62Z" fill="black"/>
<path d="M104.625 54.72C104.345 54.72 104.065 54.6 103.865 54.37C103.505 53.95 103.555 53.32 103.975 52.96C104.515 52.5 105.045 52.03 105.575 51.55C107.685 49.68 109.865 47.75 112.585 46.3C113.075 46.04 113.675 46.22 113.935 46.71C114.195 47.2 114.015 47.8 113.525 48.06C111.015 49.41 109.015 51.18 106.895 53.05C106.355 53.53 105.815 54.01 105.265 54.47C105.075 54.63 104.845 54.71 104.615 54.71L104.625 54.72Z" fill="black"/>
<path d="M107.255 56.5701C106.965 56.5701 106.685 56.4501 106.485 56.2101C106.135 55.7901 106.185 55.1601 106.605 54.8001C106.995 54.4701 107.385 54.1301 107.775 53.8001C109.335 52.4501 110.955 51.0501 112.975 49.9901C113.465 49.7301 114.065 49.9201 114.325 50.4101C114.585 50.9001 114.395 51.5001 113.905 51.7601C112.085 52.7101 110.635 53.9701 109.085 55.3101C108.685 55.6501 108.295 56.0001 107.885 56.3301C107.695 56.4901 107.465 56.5601 107.245 56.5601L107.255 56.5701Z" fill="black"/>
<path d="M109.405 59.5C109.145 59.5 108.885 59.4 108.685 59.2C108.305 58.8 108.305 58.17 108.705 57.79C108.955 57.55 109.205 57.3 109.445 57.06C110.445 56.06 111.475 55.02 112.795 54.23C113.265 53.95 113.885 54.09 114.165 54.57C114.445 55.05 114.295 55.66 113.825 55.94C112.715 56.61 111.815 57.52 110.855 58.47C110.605 58.72 110.345 58.98 110.095 59.23C109.905 59.42 109.645 59.51 109.395 59.51L109.405 59.5Z" fill="black"/>
<path d="M108.845 65.11C108.595 65.11 108.355 65.02 108.165 64.84C107.765 64.46 107.745 63.83 108.115 63.43C108.415 63.11 108.715 62.78 109.015 62.45C110.215 61.12 111.465 59.75 113.035 58.7C113.495 58.39 114.115 58.52 114.425 58.98C114.735 59.44 114.605 60.06 114.145 60.37C112.775 61.28 111.665 62.51 110.495 63.8C110.185 64.14 109.885 64.47 109.575 64.81C109.375 65.02 109.115 65.13 108.845 65.13V65.11Z" fill="black"/>
<path d="M108.995 69.66C108.745 69.66 108.505 69.57 108.315 69.39C107.915 69.01 107.895 68.38 108.265 67.98C108.565 67.66 108.865 67.33 109.155 67C110.355 65.67 111.605 64.29 113.185 63.24C113.645 62.93 114.265 63.06 114.575 63.52C114.885 63.98 114.755 64.6 114.295 64.91C112.925 65.83 111.815 67.05 110.645 68.35C110.345 68.68 110.035 69.02 109.725 69.35C109.525 69.56 109.265 69.67 108.995 69.67V69.66Z" fill="black"/>
<path d="M91.8453 47.3201C91.6053 47.3201 91.3753 47.2401 91.1753 47.0701C90.7653 46.7001 90.7253 46.0701 91.0953 45.6601C91.5153 45.1901 91.9153 44.7201 92.3253 44.2401C93.9453 42.3601 95.6253 40.4101 97.7253 38.9301C98.1753 38.6101 98.8053 38.7201 99.1153 39.1701C99.4353 39.6201 99.3253 40.2501 98.8753 40.5601C96.9753 41.8901 95.4553 43.6601 93.8353 45.5401C93.4153 46.0201 93.0053 46.5001 92.5853 46.9801C92.3853 47.2001 92.1153 47.3101 91.8353 47.3101L91.8453 47.3201Z" fill="black"/>
<path d="M93.5554 51.23C93.3754 51.23 93.1854 51.18 93.0154 51.07C92.5554 50.77 92.4154 50.15 92.7154 49.69C92.8354 49.5 92.9554 49.3 93.0854 49.11C93.5954 48.29 94.1154 47.45 94.8054 46.78C95.2054 46.39 95.8354 46.4 96.2154 46.8C96.6054 47.2 96.5954 47.83 96.1954 48.21C95.6854 48.71 95.2454 49.42 94.7754 50.17C94.6454 50.37 94.5254 50.58 94.3954 50.78C94.2054 51.08 93.8854 51.24 93.5554 51.24V51.23Z" fill="black"/>
<path d="M88.8253 44.85C88.5853 44.85 88.3353 44.76 88.1453 44.59C87.7353 44.21 87.7153 43.58 88.0853 43.18C88.3253 42.92 88.5653 42.65 88.8053 42.38C89.7853 41.28 90.8053 40.14 92.0953 39.27C92.5553 38.96 93.1753 39.08 93.4853 39.54C93.7953 40 93.6753 40.62 93.2153 40.93C92.1253 41.67 91.2353 42.66 90.2953 43.72C90.0453 44 89.8053 44.27 89.5553 44.54C89.3553 44.75 89.0853 44.86 88.8153 44.86L88.8253 44.85Z" fill="black"/>
<path d="M68.8153 35.5599C68.5653 35.5599 68.3153 35.4699 68.1153 35.2799C67.7153 34.8999 67.7153 34.2599 68.0953 33.8699C68.5053 33.4499 68.9053 33.0299 69.3053 32.5999C70.9153 30.8999 72.5753 29.1399 74.6553 27.8099C75.1253 27.5099 75.7353 27.6499 76.0353 28.1099C76.3353 28.5699 76.1953 29.1899 75.7353 29.4899C73.8653 30.6899 72.3553 32.2799 70.7653 33.9699C70.3553 34.3999 69.9453 34.8299 69.5353 35.2599C69.3353 35.4599 69.0753 35.5599 68.8153 35.5599Z" fill="black"/>
<path d="M42.6554 16.4201C42.4154 16.4201 42.1854 16.3401 41.9954 16.1701C41.5854 15.8001 41.5454 15.1701 41.9154 14.7601C42.7354 13.8401 43.5454 12.9001 44.3554 11.9601C47.5254 8.28006 50.8054 4.47006 54.8554 1.62006C55.3054 1.30006 55.9354 1.41006 56.2454 1.86006C56.5654 2.31006 56.4554 2.94006 56.0054 3.25006C52.1554 5.95006 48.9654 9.67006 45.8754 13.2601C45.0554 14.2101 44.2454 15.1501 43.4154 16.0901C43.2154 16.3101 42.9454 16.4301 42.6654 16.4301L42.6554 16.4201Z" fill="black"/>
<path d="M64.4655 35.22C64.2255 35.22 63.9855 35.1399 63.7955 34.9599C63.3855 34.5899 63.3555 33.9599 63.7255 33.5499C64.3855 32.8199 65.0255 32.0899 65.6755 31.3499C68.2355 28.4299 70.8755 25.3999 74.1555 23.1399C74.6055 22.8199 75.2355 22.9399 75.5455 23.3899C75.8555 23.8399 75.7455 24.47 75.2955 24.78C72.2255 26.9 69.6655 29.8299 67.1855 32.6599C66.5355 33.4099 65.8755 34.1499 65.2155 34.8899C65.0155 35.1099 64.7455 35.22 64.4755 35.22H64.4655Z" fill="black"/>
<path d="M59.6254 35.2201C59.3854 35.2201 59.1454 35.1301 58.9554 34.9601C58.5454 34.5901 58.5154 33.9601 58.8954 33.5501C59.8454 32.5101 60.7754 31.4601 61.7154 30.4001C65.3754 26.2601 69.1654 21.9901 73.8354 18.7901C74.2854 18.4801 74.9154 18.6001 75.2254 19.0501C75.5354 19.5101 75.4154 20.1301 74.9654 20.4401C70.4954 23.4901 66.7954 27.6701 63.2154 31.7201C62.2754 32.7801 61.3354 33.8501 60.3754 34.8901C60.1754 35.1101 59.9054 35.2201 59.6354 35.2201H59.6254Z" fill="black"/>
<path d="M54.5453 35.57C54.3053 35.57 54.0653 35.48 53.8753 35.31C53.4653 34.94 53.4353 34.31 53.8053 33.9C55.0853 32.5 56.3353 31.07 57.5953 29.65C62.5053 24.08 67.5753 18.32 73.8253 14.03C74.2853 13.72 74.9053 13.83 75.2153 14.29C75.5253 14.75 75.4153 15.37 74.9553 15.68C68.9153 19.83 63.9253 25.49 59.0953 30.97C57.8353 32.41 56.5653 33.84 55.2853 35.25C55.0853 35.47 54.8153 35.58 54.5453 35.58V35.57Z" fill="black"/>
<path d="M41.8853 21.7601C41.6353 21.7601 41.3853 21.6701 41.1853 21.4801C40.7853 21.1001 40.7753 20.4601 41.1653 20.0701C42.4553 18.7401 43.7153 17.4001 44.9853 16.0501C49.9353 10.7701 55.0653 5.32009 61.3653 1.26009C61.8253 0.960092 62.4453 1.10009 62.7453 1.56009C63.0453 2.02009 62.9153 2.64009 62.4453 2.94009C56.3453 6.86009 51.3153 12.2301 46.4453 17.4201C45.1753 18.7801 43.8953 20.1301 42.6053 21.4701C42.4053 21.6701 42.1453 21.7701 41.8853 21.7701V21.7601Z" fill="black"/>
<path d="M41.8853 27.44C41.6353 27.44 41.3853 27.35 41.1953 27.16C40.7953 26.78 40.7753 26.15 41.1653 25.75C42.7953 24.04 44.3953 22.3 45.9953 20.57C52.2453 13.8 58.7053 6.78997 66.6453 1.58997C67.1053 1.28997 67.7253 1.41997 68.0253 1.87997C68.3253 2.33997 68.1953 2.95997 67.7353 3.25997C60.0053 8.31997 53.6253 15.24 47.4553 21.92C45.8453 23.67 44.2353 25.41 42.5953 27.13C42.3953 27.34 42.1353 27.44 41.8753 27.44H41.8853Z" fill="black"/>
<path d="M49.2555 35.5599C49.0155 35.5599 48.7655 35.4699 48.5755 35.2999C48.1655 34.9199 48.1455 34.2899 48.5155 33.8899C50.0755 32.1999 51.6155 30.4699 53.1555 28.7499C59.1655 22.0299 65.3855 15.0699 73.0255 9.90988C73.4855 9.59988 74.1055 9.71988 74.4155 10.1799C74.7255 10.6399 74.6055 11.2599 74.1455 11.5699C66.7155 16.5999 60.5855 23.4499 54.6555 30.0899C53.1055 31.8199 51.5555 33.5499 49.9855 35.2599C49.7855 35.4699 49.5155 35.5799 49.2455 35.5799L49.2555 35.5599Z" fill="black"/>
<path d="M43.6454 36.3301C43.4054 36.3301 43.1654 36.2401 42.9754 36.0701C42.5654 35.7001 42.5354 35.0701 42.9054 34.6601C44.7954 32.5901 46.6854 30.4501 48.5154 28.3701C55.7654 20.1601 63.2654 11.6601 72.4654 5.36012C72.9254 5.05012 73.5454 5.17012 73.8554 5.62012C74.1654 6.08012 74.0554 6.70012 73.5954 7.01012C64.5954 13.1701 57.1854 21.5701 50.0154 29.6901C48.1754 31.7701 46.2854 33.9201 44.3854 36.0001C44.1854 36.2201 43.9154 36.3301 43.6454 36.3301Z" fill="black"/>
<path d="M41.2654 33.6899C41.0254 33.6899 40.7754 33.5999 40.5854 33.4199C40.1854 33.0399 40.1554 32.4099 40.5354 32.0099C42.5154 29.8799 44.4954 27.6799 46.4154 25.5499C54.0054 17.1099 61.8554 8.37988 71.4954 1.90988C71.9554 1.59988 72.5754 1.71988 72.8854 2.17988C73.1954 2.63988 73.0754 3.25988 72.6154 3.56988C63.1854 9.90988 55.4154 18.5399 47.9054 26.8899C45.9854 29.0299 43.9954 31.2399 42.0054 33.3799C41.8054 33.5899 41.5454 33.6999 41.2754 33.6999L41.2654 33.6899Z" fill="black"/>
<path d="M93.3055 15.54C93.0055 15.54 92.7155 15.41 92.5155 15.16C92.0155 14.53 91.9055 13.64 92.2355 12.91C92.4555 12.41 93.0455 12.18 93.5555 12.41C94.0555 12.64 94.2855 13.23 94.0555 13.73C94.0255 13.79 94.0455 13.88 94.0755 13.93C94.4155 14.36 94.3455 14.99 93.9055 15.33C93.7255 15.47 93.5055 15.54 93.2855 15.54H93.3055Z" fill="black"/>
<path d="M100.805 15.61C100.255 15.61 99.8054 15.16 99.8054 14.61V13.25C99.8054 12.7 100.255 12.25 100.805 12.25C101.355 12.25 101.805 12.7 101.805 13.25V14.61C101.805 15.16 101.355 15.61 100.805 15.61Z" fill="black"/>
<path d="M96.7654 23.2701C95.6854 23.2701 94.6354 23.0501 93.6954 22.6201C92.1754 21.9101 91.0254 20.6901 90.0154 19.6201C89.6354 19.2201 89.6554 18.5801 90.0554 18.2101C90.4554 17.8301 91.0954 17.8501 91.4654 18.2501C92.3954 19.2401 93.3554 20.2601 94.5254 20.8101C95.8254 21.4201 97.4654 21.4401 99.0054 20.8601C100.395 20.3501 101.715 19.3901 102.915 18.0001C103.275 17.5801 103.915 17.5401 104.325 17.9001C104.745 18.2601 104.785 18.8901 104.425 19.3101C103.005 20.9501 101.415 22.1001 99.7054 22.7301C98.7354 23.0901 97.7354 23.2701 96.7554 23.2701H96.7654Z" fill="black"/>
<path d="M90.5354 59.23C89.4454 56.89 88.4554 54.72 87.5954 52.75C85.8254 48.74 85.2854 47.32 85.9554 46.17C86.4854 45.27 87.7554 44.47 88.9554 44.6C88.9554 44.6 89.6354 44.67 90.2754 45.15C92.5554 46.85 94.6854 56.25 94.8454 56.96C95.2554 50.43 95.7654 45.67 96.1254 44.88C96.3354 44.42 96.6754 44.15 96.6754 44.15C96.8354 44.05 97.0554 43.92 97.3354 43.81C97.4454 43.76 98.1854 43.47 98.8954 43.5C100.105 43.55 100.955 44.54 101.075 44.67C102.145 45.91 101.815 47.73 101.495 49.86C101.225 51.71 100.875 54.42 100.605 57.88" fill="white"/>
<path d="M91.3955 58.7299C90.0855 55.9199 88.7655 53.1099 87.5855 50.2399C87.2255 49.3699 86.7755 48.4099 86.6755 47.4599C86.6655 47.3499 86.6955 46.9599 86.7055 46.9499C86.7555 46.7499 86.9155 46.4599 87.2255 46.1899C87.7055 45.7799 88.3155 45.5199 88.9455 45.5899C88.5955 45.5499 89.1655 45.6699 89.2855 45.7199C89.5155 45.8199 89.6855 45.9399 89.8555 46.1099C90.3055 46.5599 90.6455 47.2399 90.9355 47.8599C91.7555 49.5599 92.3155 51.3899 92.8355 53.1999C93.2155 54.5299 93.5655 55.8699 93.8655 57.2199C94.1255 58.3699 95.7655 58.0299 95.8255 56.9499C95.9755 54.4899 96.1555 52.0399 96.3955 49.5899C96.5255 48.2599 96.6155 46.8799 96.9355 45.5799C96.9655 45.4399 97.1255 45.0699 96.9755 45.3699C97.1655 44.9999 97.3155 44.8699 97.6655 44.7299C98.5555 44.3499 99.4155 44.4299 100.115 45.0999C101.405 46.3299 100.635 48.7399 100.425 50.2699C100.075 52.7899 99.7955 55.3299 99.5955 57.8699C99.4955 59.1499 101.495 59.1499 101.595 57.8699C101.795 55.3299 102.055 52.7999 102.425 50.2799C102.745 48.0699 103.345 45.4299 101.525 43.6899C99.9855 42.2099 97.0855 41.9899 95.6355 43.7699C94.7355 44.8699 94.7255 46.5599 94.5755 47.8999C94.2255 50.9099 94.0155 53.9299 93.8255 56.9499L95.7855 56.6799C95.0055 53.1799 94.0855 49.4799 92.3755 46.2999C91.9855 45.5799 91.5255 44.8499 90.8555 44.3499C89.6355 43.4299 88.1255 43.3599 86.7855 44.0599C84.6455 45.1799 84.3555 47.1599 85.0655 49.2499C85.6055 50.8599 86.3455 52.4099 87.0355 53.9599C87.8955 55.8899 88.7655 57.8099 89.6655 59.7199C90.2055 60.8899 91.9355 59.8699 91.3955 58.7099V58.7299Z" fill="black"/>
<path d="M107.945 63.1899C108.095 63.6199 108.525 65.0299 107.955 66.6999C107.355 68.4599 106.045 69.3299 105.665 69.5499C100.565 69.8499 95.4652 70.1599 90.3652 70.4599C91.4052 67.0099 92.4552 63.5699 93.4952 60.1199C98.3052 61.1399 103.125 62.1599 107.935 63.1799L107.945 63.1899Z" fill="white"/>
<path d="M106.985 63.45C107.435 64.78 107.295 66.22 106.505 67.4C106.235 67.81 105.845 68.29 105.405 68.53C105.365 68.55 105.155 68.64 105.275 68.61C105.395 68.58 104.635 68.61 104.625 68.61C104.105 68.64 103.585 68.67 103.065 68.7C98.8353 68.95 94.6053 69.2 90.3753 69.45L91.3353 70.72C92.3753 67.27 93.4253 63.83 94.4653 60.38L93.2353 61.08C98.0453 62.1 102.865 63.12 107.675 64.14C108.935 64.41 109.465 62.48 108.205 62.21C103.395 61.19 98.5753 60.17 93.7653 59.15C93.2253 59.04 92.6953 59.31 92.5353 59.85C91.4953 63.3 90.4453 66.74 89.4053 70.19C89.2253 70.79 89.7253 71.49 90.3653 71.46C95.3453 71.16 100.335 70.94 105.315 70.57C106.715 70.47 107.855 69.15 108.485 67.97C109.295 66.43 109.465 64.58 108.905 62.92C108.495 61.71 106.565 62.23 106.975 63.45H106.985Z" fill="black"/>
<path d="M90.7853 69.4999C90.4653 68.5399 89.5953 67.8599 89.0553 66.9999C88.3153 65.8099 88.2553 64.3599 88.2153 62.9699C88.1953 62.4299 88.1953 61.8599 88.4753 61.3899C88.7053 60.9999 89.1053 60.7399 89.4853 60.4999C90.0753 60.1199 90.3453 59.8899 90.9053 59.5799C92.5553 58.6699 95.1853 57.5699 95.4753 57.4499C96.6353 57.3599 97.7353 57.8699 98.3253 58.7999C98.7953 59.5399 99.0053 60.6599 98.5053 61.5399C98.1553 62.1499 97.6053 62.4199 97.1253 62.6499C96.0253 63.1699 94.9653 63.1399 94.3553 63.0699C94.7253 63.0699 95.2753 63.0899 95.9353 63.1299C97.2053 63.2099 97.8453 63.2399 98.2653 63.3899C98.5853 63.4999 99.8453 64.0099 100.515 66.7999" fill="white"/>
<path d="M91.7553 69.24C91.4353 68.4 90.9053 67.75 90.3453 67.07C89.7853 66.39 89.4653 65.62 89.3353 64.73C89.2753 64.29 89.2553 63.84 89.2353 63.4C89.2153 63 89.1453 62.53 89.2553 62.14C89.3653 61.75 89.6753 61.58 89.9853 61.38C90.3453 61.14 90.6953 60.88 91.0653 60.66C92.3553 59.87 93.7853 59.27 95.1653 58.67C95.2753 58.62 95.3853 58.58 95.4953 58.53C95.5753 58.5 95.8453 58.43 95.6053 58.48C95.7253 58.45 95.9253 58.45 96.1753 58.5C96.8553 58.64 97.4253 59.08 97.6553 59.74C98.3653 61.72 95.7353 62.23 94.3253 62.07V64.07C95.2453 64.08 96.1753 64.13 97.0953 64.2C97.3853 64.22 97.5353 64.23 97.8053 64.3C97.8753 64.32 97.9353 64.34 98.0053 64.36C98.2053 64.41 97.8153 64.24 97.9553 64.34C98.0153 64.38 98.3753 64.62 98.1953 64.47C98.3253 64.57 98.5353 64.79 98.5853 64.85C99.0853 65.49 99.3353 66.29 99.5353 67.06C99.8453 68.31 101.775 67.78 101.465 66.53C101.105 65.08 100.425 63.38 99.0153 62.63C98.5253 62.37 98.0153 62.29 97.4753 62.23C96.4353 62.12 95.3853 62.08 94.3453 62.06C93.0253 62.04 93.0953 63.92 94.3453 64.06C96.3453 64.28 99.1353 63.45 99.6853 61.25C100.265 58.92 98.4853 56.74 96.1953 56.47C95.3853 56.38 94.8353 56.64 94.1053 56.95C93.2253 57.33 92.3453 57.73 91.4853 58.15C90.5753 58.6 89.7453 59.12 88.9053 59.68C87.7953 60.42 87.2253 61.29 87.2253 62.65C87.2253 64.01 87.2953 65.37 87.7753 66.6C88.0253 67.24 88.3753 67.77 88.8153 68.31C89.1753 68.76 89.6253 69.2 89.8353 69.75C90.0253 70.25 90.5053 70.6 91.0653 70.45C91.5453 70.32 91.9553 69.73 91.7653 69.22L91.7553 69.24Z" fill="black"/>
<path d="M51.9854 52.0201L54.4454 54.9501C54.6054 55.1401 54.9154 55.2401 55.1554 55.2401C55.3954 55.2401 55.6954 55.1301 55.8654 54.9501C56.0354 54.7701 56.1654 54.5101 56.1554 54.2401C56.1454 53.9701 56.0454 53.7501 55.8654 53.5301L53.4054 50.6001C53.2454 50.4101 52.9354 50.3101 52.6954 50.3101C52.4554 50.3101 52.1554 50.4201 51.9854 50.6001C51.8154 50.7801 51.6854 51.0401 51.6954 51.3101C51.7054 51.5801 51.8054 51.8001 51.9854 52.0201Z" fill="black"/>
<path d="M54.2354 50.7001C53.2354 51.6801 52.1854 52.6101 51.1054 53.5001C50.9154 53.6501 50.8154 53.9801 50.8154 54.2101C50.8154 54.4601 50.9254 54.7501 51.1054 54.9201C51.2854 55.0901 51.5454 55.2201 51.8154 55.2101C52.0954 55.2001 52.3054 55.0901 52.5254 54.9201C53.6054 54.0301 54.6554 53.0901 55.6554 52.1201C56.0354 51.7501 56.0454 51.0701 55.6554 50.7101C55.2654 50.3501 54.6454 50.3201 54.2454 50.7101L54.2354 50.7001Z" fill="black"/>
<path d="M61.7953 52.48L65.0453 55.17C65.2553 55.34 65.4753 55.46 65.7553 55.46C66.0053 55.46 66.2953 55.35 66.4653 55.17C66.8053 54.8 66.8953 54.11 66.4653 53.76L63.2153 51.07C63.0053 50.9 62.7853 50.78 62.5053 50.78C62.2553 50.78 61.9653 50.89 61.7953 51.07C61.4553 51.44 61.3653 52.13 61.7953 52.48Z" fill="black"/>
<path d="M64.7354 50.91C63.7054 51.81 62.7054 52.76 61.7554 53.75C61.3954 54.13 61.3554 54.79 61.7554 55.16C62.1554 55.53 62.7854 55.56 63.1654 55.16C64.1154 54.17 65.1154 53.23 66.1454 52.32C66.5454 51.97 66.5254 51.25 66.1454 50.91C65.7254 50.52 65.1554 50.54 64.7354 50.91Z" fill="black"/>
<path d="M57.7653 56.37C56.7553 56.96 55.7853 57.85 55.6253 59.06C55.4953 60.05 55.8853 61.12 56.6053 61.8C57.5753 62.72 58.9753 62.86 60.1653 62.31C60.6953 62.07 61.2053 61.62 61.4653 61.1C61.7853 60.45 61.7853 59.73 61.5853 59.03C61.3053 58.01 60.6053 57.19 59.7053 56.66C59.2553 56.39 58.5853 56.54 58.3353 57.02C58.0853 57.5 58.2153 58.1 58.6953 58.39C58.7753 58.44 58.8553 58.49 58.9353 58.54C59.0053 58.59 59.1453 58.72 58.8953 58.51C58.9553 58.56 59.0153 58.61 59.0753 58.66C59.1853 58.76 59.2753 58.88 59.3853 58.98C59.4753 59.07 59.2653 58.81 59.3353 58.91C59.3653 58.95 59.3953 58.99 59.4153 59.03C59.4653 59.11 59.5153 59.19 59.5553 59.27C59.6453 59.45 59.5753 59.24 59.5553 59.24C59.5553 59.24 59.6053 59.37 59.6053 59.36C59.6353 59.45 59.6653 59.54 59.6853 59.63C59.6953 59.68 59.7053 59.72 59.7153 59.77C59.7153 59.8 59.7253 60.01 59.7353 59.85C59.7353 59.7 59.7353 59.85 59.7353 59.9C59.7353 59.96 59.7353 60.02 59.7353 60.08C59.7353 60.3 59.7853 59.93 59.7353 60.06C59.7153 60.1 59.7053 60.15 59.6953 60.2C59.6653 60.32 59.8253 60.02 59.6953 60.18C59.6853 60.2 59.6253 60.29 59.6253 60.29C59.6253 60.26 59.7853 60.12 59.6553 60.25C59.6253 60.28 59.5953 60.32 59.5553 60.35C59.5453 60.36 59.4753 60.44 59.4553 60.44C59.5553 60.36 59.5753 60.34 59.5153 60.39C59.4853 60.41 59.4653 60.43 59.4353 60.44C59.3653 60.48 59.2953 60.52 59.2253 60.56C59.0353 60.66 59.3953 60.51 59.2553 60.55C59.2153 60.56 59.1753 60.58 59.1253 60.59C59.0453 60.61 58.8953 60.62 58.8253 60.66C58.8453 60.64 59.0653 60.64 58.8853 60.65C58.8153 60.65 58.7453 60.65 58.6753 60.65C58.6553 60.65 58.5453 60.64 58.5353 60.65C58.5553 60.64 58.7753 60.7 58.5853 60.65C58.5253 60.64 58.3353 60.62 58.2953 60.57C58.3453 60.63 58.4353 60.64 58.3353 60.59C58.2953 60.57 58.2453 60.55 58.2053 60.52C58.1753 60.5 58.1353 60.48 58.1053 60.46C57.9253 60.34 58.1953 60.55 58.1253 60.48C58.0653 60.42 57.9953 60.37 57.9453 60.31C57.9153 60.28 57.8953 60.25 57.8753 60.23C57.8153 60.17 57.8453 60.12 57.9253 60.3C57.8953 60.24 57.8453 60.18 57.8053 60.12C57.7553 60.04 57.7353 59.95 57.6753 59.88C57.7853 60.03 57.7453 60.06 57.7153 59.97C57.7053 59.93 57.6853 59.89 57.6753 59.84C57.6553 59.77 57.6353 59.71 57.6253 59.64C57.6253 59.6 57.6153 59.55 57.6053 59.51C57.6053 59.51 57.6353 59.78 57.6253 59.62C57.6253 59.54 57.6153 59.46 57.6153 59.37C57.6153 59.34 57.6153 59.31 57.6153 59.27C57.6153 59.09 57.5653 59.52 57.6053 59.35C57.6253 59.26 57.6453 59.18 57.6753 59.1C57.7153 58.96 57.6453 59.1 57.6553 59.13C57.6553 59.1 57.7453 58.97 57.7553 58.95C57.7753 58.92 57.8153 58.88 57.8253 58.84L57.7453 58.94C57.7453 58.94 57.8053 58.87 57.8353 58.84C57.9853 58.67 58.1553 58.52 58.3253 58.38C58.4353 58.22 58.3953 58.32 58.3253 58.38C58.3553 58.34 58.4253 58.31 58.4653 58.28C58.5753 58.21 58.6853 58.14 58.7953 58.07C59.2453 57.81 59.4453 57.16 59.1553 56.7C58.8653 56.24 58.2653 56.06 57.7853 56.34L57.7653 56.37Z" fill="black"/>
<path d="M101.215 53.8099C100.625 54.0699 100.235 54.6399 100.045 54.8999C99.8054 55.2399 99.5854 55.6299 99.3354 56.8099C99.0854 57.9999 98.8954 59.2099 98.7954 60.4199C98.7354 61.0899 98.7054 61.7799 98.8954 62.4299C99.0854 63.0799 99.5554 63.6799 100.205 63.8699C100.825 64.0499 101.505 63.8299 102.005 63.4199C102.685 62.8699 103.015 62.1899 103.135 61.8699C104.655 57.9599 105.405 55.9799 104.945 55.1999C104.225 53.9899 102.375 53.2699 101.205 53.7899L101.215 53.8099Z" fill="white"/>
<path d="M100.715 52.94C98.7255 53.92 98.3455 56.39 98.0555 58.34C97.8555 59.68 97.5755 61.18 97.8955 62.52C98.1955 63.77 99.1955 64.86 100.525 64.93C103.285 65.08 104.185 61.98 104.945 59.95C105.275 59.09 105.595 58.22 105.835 57.32C105.985 56.75 106.125 56.14 106.065 55.55C105.855 53.42 102.795 52.07 100.935 52.82C100.435 53.02 100.085 53.49 100.235 54.05C100.365 54.52 100.965 54.95 101.465 54.75C102.005 54.53 102.525 54.59 103.095 54.86C103.395 55 103.665 55.19 103.885 55.44C103.955 55.52 104.005 55.62 104.085 55.71C103.985 55.59 104.055 55.54 104.085 55.73C104.085 55.67 104.085 55.51 104.085 55.73C104.085 55.81 104.085 55.9 104.085 55.98C104.085 56.2 104.125 55.82 104.065 56.12C104.035 56.25 104.015 56.37 103.985 56.5C103.825 57.15 103.605 57.79 103.385 58.42C103.075 59.3 102.735 60.17 102.395 61.04C102.345 61.16 102.305 61.28 102.255 61.4C102.245 61.43 102.115 61.73 102.225 61.49C102.165 61.62 102.105 61.75 102.025 61.87C101.835 62.2 101.575 62.52 101.245 62.72C100.615 63.12 100.085 62.8 99.8655 62.14C99.5655 61.22 99.8055 60.06 99.9355 59.13C100.085 58.05 100.235 56.9 100.625 55.87C100.745 55.55 100.585 55.95 100.655 55.79C100.685 55.73 100.715 55.67 100.755 55.61C100.815 55.5 100.885 55.4 100.955 55.3C101.135 55.04 101.375 54.8 101.715 54.63C102.865 54.06 101.855 52.33 100.705 52.9L100.715 52.94Z" fill="black"/>
<path d="M105.475 56.0498C106.665 55.7198 107.855 55.9598 108.525 56.7198C109.165 57.4498 109.085 58.4098 109.025 59.2298C109.005 59.5398 108.875 60.7298 108.025 61.9198C107.645 62.4398 107.165 63.1298 106.255 63.4798C104.875 64.0198 103.565 63.4098 103.265 63.2598" fill="white"/>
<path d="M105.745 57.0099C106.295 56.8699 106.775 56.8399 107.305 57.0399C107.165 56.9899 107.455 57.1199 107.455 57.1199C107.515 57.1499 107.575 57.1899 107.635 57.2299C107.575 57.1799 107.585 57.1899 107.675 57.2699C107.845 57.4399 107.945 57.6099 107.985 57.7699C108.065 58.0599 108.055 58.0699 108.065 58.3699C108.075 58.6699 108.045 58.9399 108.025 59.2299C108.025 59.2699 108.025 59.3699 108.005 59.3999C108.075 59.3099 108.035 59.1899 108.005 59.3799C107.965 59.6099 107.905 59.8499 107.835 60.0699C107.675 60.5999 107.405 61.0699 107.055 61.5499C107.015 61.5999 106.985 61.6499 106.945 61.6999C107.005 61.6199 107.005 61.6299 106.925 61.7199C106.835 61.8199 106.755 61.9199 106.655 62.0199C106.465 62.2199 106.365 62.2899 106.175 62.4099C105.925 62.5599 105.635 62.6599 105.315 62.6999C105.255 62.6999 105.065 62.6999 104.955 62.6999C104.965 62.6999 104.635 62.6799 104.765 62.6999C104.505 62.6699 104.255 62.5999 104.005 62.5099C103.945 62.4899 103.635 62.3499 103.915 62.4799C103.865 62.4499 103.805 62.4299 103.745 62.3999C103.265 62.1599 102.665 62.2699 102.375 62.7599C102.115 63.1999 102.245 63.8899 102.735 64.1299C103.725 64.6199 104.805 64.8099 105.905 64.6199C107.185 64.3899 108.095 63.5099 108.815 62.4999C109.485 61.5699 109.875 60.4899 109.995 59.3499C110.115 58.2099 110.045 56.9899 109.255 56.0599C108.265 54.8999 106.585 54.7199 105.195 55.0799C104.675 55.2199 104.355 55.7899 104.495 56.3099C104.635 56.8299 105.205 57.1399 105.725 57.0099H105.745Z" fill="black"/>
</svg>
