<svg width="600" height="600" viewBox="0 0 600 600" fill="none" xmlns="http://www.w3.org/2000/svg">
<rect width="600" height="600" fill="white"/>
<path d="M353.499 329.849H246.938C231.985 329.849 219.862 341.971 219.862 356.924C219.862 371.877 231.985 384 246.938 384H353.499C368.452 384 380.575 371.877 380.575 356.924C380.575 341.971 368.452 329.849 353.499 329.849ZM272.077 360.522C272.077 368.279 266.44 373.802 258.201 373.802C249.963 373.802 244.326 368.646 244.326 360.522V340.608H250.249V360.098C250.249 364.681 253.068 368.359 258.201 368.359C263.335 368.359 266.13 364.727 266.13 360.121V340.608H272.077V360.522ZM307.128 373.092H302.04L284.338 350.382V373.092H278.391V340.608H283.501L301.204 363.341V340.608H307.128V373.092ZM319.984 373.092H314.037V340.608H319.984V373.092ZM343.37 373.092H337.95L324.338 340.585H330.617L340.62 365.323L340.712 365.277L350.692 340.585H356.994L343.359 373.092H343.37Z" fill="#000620"/>
<path d="M132.586 242.789C117.014 242.789 104.375 255.416 104.375 270.999C104.375 286.571 117.002 299.209 132.586 299.209C148.157 299.209 160.796 286.582 160.796 270.999C160.796 255.428 148.169 242.789 132.586 242.789ZM132.586 287.923C123.236 287.923 115.662 280.349 115.662 270.999C115.662 261.649 123.236 254.076 132.586 254.076C141.935 254.076 149.509 261.649 149.509 270.999C149.509 280.349 141.935 287.923 132.586 287.923Z" fill="#000620"/>
<path d="M196.041 242.789C180.469 242.789 167.831 255.416 167.831 270.999C167.831 286.571 180.458 299.209 196.041 299.209C211.612 299.209 224.251 286.582 224.251 270.999C224.251 255.428 211.624 242.789 196.041 242.789ZM196.041 287.923C186.691 287.923 179.117 280.349 179.117 270.999C179.117 261.649 186.691 254.076 196.041 254.076C205.391 254.076 212.964 261.649 212.964 270.999C212.964 280.349 205.391 287.923 196.041 287.923Z" fill="#000620"/>
<path d="M479.803 242.789C464.231 242.789 451.593 255.416 451.593 270.999C451.593 286.571 464.22 299.209 479.803 299.209C495.375 299.209 508.013 286.582 508.013 270.999C508.013 255.428 495.386 242.789 479.803 242.789ZM479.803 287.923C470.453 287.923 462.879 280.349 462.879 270.999C462.879 261.649 470.453 254.076 479.803 254.076C489.153 254.076 496.727 261.649 496.727 270.999C496.727 280.349 489.153 287.923 479.803 287.923Z" fill="#000620"/>
<path d="M232.707 269.59V297.789H243.993V269.59C243.993 261.798 250.307 255.485 258.098 255.485H263.736V244.199H258.098C244.074 244.199 232.719 255.565 232.719 269.579L232.707 269.59Z" fill="#000620"/>
<path d="M325.782 244.199C319.045 244.199 312.995 247.155 308.858 251.841C304.722 247.155 298.672 244.199 291.935 244.199C279.468 244.199 269.374 254.305 269.374 266.76V297.789H280.66V266.76C280.66 260.527 285.713 255.474 291.946 255.474C298.179 255.474 303.232 260.527 303.232 266.76V297.789H314.519V266.76C314.519 260.527 319.572 255.474 325.805 255.474C332.038 255.474 337.091 260.527 337.091 266.76V297.789H348.378V266.76C348.378 254.293 338.272 244.199 325.817 244.199H325.782Z" fill="#000620"/>
<path d="M553.432 251.497C553.1 251.131 552.745 250.776 552.389 250.432C552.195 250.249 551.988 250.065 551.793 249.882C551.427 249.561 551.06 249.252 550.671 248.954C550.453 248.782 550.224 248.61 549.995 248.45C549.605 248.175 549.215 247.911 548.814 247.659C548.562 247.51 548.322 247.35 548.07 247.201C547.669 246.972 547.245 246.754 546.821 246.548C546.557 246.422 546.294 246.284 546.019 246.158C545.595 245.963 545.148 245.803 544.701 245.631C544.414 245.528 544.139 245.413 543.853 245.322C543.395 245.173 542.925 245.047 542.455 244.932C542.169 244.863 541.894 244.772 541.596 244.714C541.08 244.6 540.553 244.531 540.026 244.451C539.774 244.416 539.522 244.359 539.27 244.336C538.479 244.256 537.677 244.21 536.875 244.21C536.061 244.21 535.259 244.256 534.48 244.336C534.228 244.359 533.976 244.416 533.724 244.451C533.197 244.531 532.67 244.6 532.154 244.714C531.868 244.772 531.581 244.863 531.295 244.932C530.825 245.058 530.355 245.173 529.897 245.322C529.61 245.413 529.335 245.528 529.049 245.631C528.602 245.791 528.167 245.963 527.731 246.158C527.456 246.284 527.193 246.41 526.929 246.548C526.505 246.754 526.093 246.972 525.68 247.201C525.428 247.35 525.176 247.499 524.935 247.659C524.534 247.911 524.133 248.175 523.755 248.45C523.526 248.61 523.297 248.782 523.079 248.954C522.701 249.252 522.323 249.561 521.956 249.882C521.75 250.065 521.555 250.237 521.361 250.432C521.005 250.776 520.65 251.131 520.318 251.497C516.605 255.519 514.325 260.87 514.325 266.771V297.8H525.612V266.771C525.612 260.538 530.665 255.485 536.898 255.485C543.131 255.485 548.184 260.538 548.184 266.771V297.8H559.47V266.771C559.47 260.87 557.19 255.519 553.478 251.497H553.432Z" fill="#000620"/>
<path d="M423.451 238.618C419.739 238.618 416.095 239.57 412.875 241.357V216H401.589V297.789H412.875V260.469C412.875 254.637 417.619 249.893 423.451 249.893C429.283 249.893 434.027 254.637 434.027 260.469V297.789H445.313V260.469C445.313 248.415 435.505 238.607 423.451 238.607V238.618Z" fill="#000620"/>
<path d="M380.025 216H368.75V239.971H355.355V251.257H368.75V297.789H380.025V251.257H393.431V239.971H380.025V216Z" fill="#000620"/>
<path d="M97.3972 248.438C97.3972 232.866 84.7703 220.24 69.1986 220.24C53.6269 220.24 41.7792 232.11 41.0344 247.017C41.0115 247.487 41 247.957 41 248.438C41 248.919 41.0115 249.389 41.0344 249.859C41.7677 264.388 53.7759 275.938 68.4882 275.938C75.1912 275.938 81.3443 273.532 86.1109 269.544V273.818C86.0078 275.583 85.4807 280.143 81.9859 283.787C76.9902 288.989 69.2444 288.908 64.1799 287.155C58.8748 285.333 55.8956 281.472 54.7498 279.799L44.2541 284.142C47.7145 290.684 53.6727 295.715 60.857 297.937C61.556 298.155 64.7757 299.141 69.1986 299.198C72.3152 299.232 82.3641 299.347 89.9608 291.762C96.8357 284.898 97.3399 276.098 97.3972 273.818V248.45V248.438ZM69.1986 265.362C59.8602 265.362 52.2863 257.788 52.2863 248.45C52.2863 239.111 59.8602 231.537 69.1986 231.537C78.537 231.537 86.1109 239.111 86.1109 248.45C86.1109 257.788 78.537 265.362 69.1986 265.362Z" fill="#000620"/>
<path d="M124.323 108.852L128.803 112.078L117.693 126.054L130.595 141.464L126.115 144.868L110.884 126.233L124.323 108.852ZM108.734 144.152H103V95.4132L108.734 94.1589V144.152Z" fill="#1E1E1E"/>
<path d="M146.543 140.031C147.259 140.031 148.155 139.852 149.051 139.673C149.947 139.494 150.843 139.136 151.56 138.777C152.456 138.419 153.173 138.06 153.889 137.523C154.606 136.985 155.323 136.448 155.86 135.91V127.847H149.768C146.722 127.847 144.572 128.384 143.138 129.459C141.705 130.535 140.988 132.147 140.988 134.477C141.346 138.24 142.959 140.031 146.543 140.031ZM135.792 135.014C135.792 131.61 136.867 128.922 139.375 127.13C141.705 125.338 145.109 124.442 149.589 124.442H156.219V122.292C156.219 116.916 153.889 114.229 149.23 114.229C147.797 114.229 146.184 114.408 144.572 114.945C142.959 115.304 141.346 115.841 140.092 116.558L138.479 112.437C140.271 111.541 142.063 110.645 144.034 110.287C146.005 109.749 147.976 109.57 149.768 109.57C157.831 109.57 161.953 113.87 161.953 122.65V144.69H157.652L156.936 140.927C155.144 142.361 153.352 143.436 151.381 144.153C149.41 144.869 147.618 145.228 145.826 145.228C142.78 145.228 140.45 144.332 138.659 142.54C136.687 140.39 135.792 138.06 135.792 135.014Z" fill="#1E1E1E"/>
<path d="M193.129 108.852L197.609 112.078L186.499 126.054L199.401 141.464L194.921 144.868L179.69 126.233L193.129 108.852ZM177.719 144.152H171.985V95.4132L177.719 94.1589V144.152Z" fill="#1E1E1E"/>
<path d="M215.53 140.029C216.247 140.029 217.143 139.85 218.039 139.671C218.934 139.492 219.83 139.133 220.547 138.775C221.443 138.416 222.16 138.058 222.877 137.52C223.593 136.983 224.31 136.445 224.848 135.908V127.844H218.755C215.709 127.844 213.559 128.382 212.125 129.457C210.692 130.532 209.975 132.145 209.975 134.474C210.154 138.237 211.946 140.029 215.53 140.029ZM204.6 135.012C204.6 131.607 205.675 128.92 208.004 127.128C210.334 125.336 213.738 124.44 218.218 124.44H224.848V122.29C224.848 116.914 222.518 114.226 217.859 114.226C216.426 114.226 214.813 114.406 213.021 114.943C211.409 115.301 209.796 115.839 208.542 116.556L206.929 112.434C208.721 111.539 210.513 110.643 212.484 110.284C214.455 109.747 216.426 109.568 218.218 109.568C226.281 109.568 230.402 113.868 230.402 122.648V144.688H226.102L225.385 140.925C223.593 142.359 221.801 143.434 219.83 144.15C217.859 144.867 216.068 145.226 214.276 145.226C211.23 145.226 208.721 144.33 207.108 142.538C205.496 140.388 204.6 138.058 204.6 135.012Z" fill="#1E1E1E"/>
<path d="M253.698 113.868C250.651 113.868 248.322 114.944 246.709 117.273C245.097 119.602 244.201 122.828 244.201 127.128C244.201 131.429 245.097 134.654 246.709 136.983C248.322 139.134 250.651 140.209 253.698 140.209C256.744 140.209 259.073 139.134 260.686 136.983C262.298 134.833 263.194 131.608 263.194 127.128C263.194 122.828 262.298 119.423 260.686 117.273C259.073 114.944 256.744 113.868 253.698 113.868ZM253.698 109.21C258.536 109.21 262.299 110.822 264.986 113.868C267.674 116.915 269.108 121.394 269.108 127.128C269.108 132.862 267.674 137.163 264.986 140.209C262.299 143.255 258.536 144.868 253.698 144.868C248.86 144.868 245.097 143.255 242.409 140.209C239.721 137.163 238.288 132.683 238.288 127.128C238.288 121.394 239.721 116.915 242.409 113.868C245.276 110.822 249.039 109.21 253.698 109.21Z" fill="#1E1E1E"/>
<path d="M292.265 110.273L300.703 124.229L309.14 110.273H313.551L303.025 126.636L313.551 143H309.14L300.703 129.491L292.265 143H287.876L298.274 126.636L287.876 110.273H292.265Z" fill="black"/>
<path d="M387.745 110.018C379.126 110.018 372.12 117.007 372.12 125.643C372.12 134.28 379.108 141.268 387.745 141.268C396.382 141.268 403.37 134.28 403.37 125.643C403.37 117.007 396.382 110.018 387.745 110.018ZM387.745 134.997C382.567 134.997 378.374 130.804 378.374 125.625C378.374 120.447 382.567 116.254 387.745 116.254C392.924 116.254 397.117 120.447 397.117 125.625C397.117 130.804 392.924 134.997 387.745 134.997Z" fill="black"/>
<path d="M422.882 110.018C414.263 110.018 407.257 117.007 407.257 125.643C407.257 134.28 414.246 141.268 422.882 141.268C431.519 141.268 438.507 134.28 438.507 125.643C438.507 117.007 431.519 110.018 422.882 110.018ZM422.882 134.997C417.704 134.997 413.511 130.804 413.511 125.625C413.511 120.447 417.704 116.254 422.882 116.254C428.061 116.254 432.254 120.447 432.254 125.625C432.254 130.804 428.061 134.997 422.882 134.997Z" fill="black"/>
<path d="M457.253 110.788C449.495 110.788 443.205 117.077 443.205 124.836V140.461H449.459V124.836C449.459 120.518 452.953 117.024 457.271 117.024H460.389V110.77H457.271L457.253 110.788Z" fill="black"/>
<path d="M507.228 123.295C507.228 116.396 501.638 110.806 494.739 110.806C491.012 110.806 487.661 112.436 485.367 115.035C483.074 112.436 479.723 110.806 475.996 110.806C469.097 110.806 463.507 116.396 463.507 123.295V140.479H469.76V123.295C469.76 119.837 472.556 117.042 476.014 117.042C479.472 117.042 482.268 119.837 482.268 123.295V140.479H488.521V123.295C488.521 119.837 491.316 117.042 494.775 117.042C498.233 117.042 501.028 119.837 501.028 123.295V140.479H507.282V123.295H507.228Z" fill="black"/>
<path d="M368.232 125.625C368.232 117.006 361.244 110 352.607 110C343.97 110 337.412 116.576 337.018 124.837C337.018 125.087 337 125.356 337 125.625C337 125.894 337 126.145 337.018 126.413C337.43 134.459 344.078 140.856 352.231 140.856C355.94 140.856 359.344 139.53 361.996 137.308V139.673C361.943 140.659 361.656 143.167 359.703 145.192C356.943 148.077 352.643 148.023 349.848 147.056C346.909 146.052 345.26 143.902 344.615 142.988L338.81 145.389C340.727 149.009 344.024 151.804 348.002 153.023C348.396 153.148 350.17 153.685 352.625 153.721C354.345 153.739 359.918 153.793 364.129 149.6C367.945 145.801 368.214 140.927 368.25 139.655V125.607L368.232 125.625ZM352.607 134.996C347.429 134.996 343.236 130.803 343.236 125.625C343.236 120.446 347.429 116.254 352.607 116.254C357.786 116.254 361.979 120.446 361.979 125.625C361.979 130.803 357.786 134.996 352.607 134.996Z" fill="black"/>
</svg>
